<svg xmlns="http://www.w3.org/2000/svg" viewBox="0 0 64 64" fill="none">
  <!-- Center voice node -->
  <circle cx="14" cy="32" r="10" fill="#1A2D63" fill-opacity="0.15" stroke="#1A2D63" stroke-width="2.5"/>
  <!-- Mini waveform inside circle -->
  <rect x="9" y="29" width="2" height="6" rx="1" fill="#1A2D63" opacity="0.7"/>
  <rect x="13" y="27" width="2" height="10" rx="1" fill="#1A2D63" opacity="0.7"/>
  <rect x="17" y="29" width="2" height="6" rx="1" fill="#1A2D63" opacity="0.7"/>
  <!-- Branch lines -->
  <path d="M24 32h8l6-14h4" stroke="#1A2D63" stroke-width="2" stroke-linecap="round" stroke-linejoin="round" opacity="0.5"/>
  <path d="M24 32h14" stroke="#1A2D63" stroke-width="2" stroke-linecap="round" opacity="0.5"/>
  <path d="M24 32h8l6 14h4" stroke="#1A2D63" stroke-width="2" stroke-linecap="round" stroke-linejoin="round" opacity="0.5"/>
  <!-- Action nodes -->
  <rect x="42" y="12" width="16" height="12" rx="3" fill="#1A2D63" fill-opacity="0.2" stroke="#1A2D63" stroke-width="2"/>
  <rect x="42" y="26" width="16" height="12" rx="3" fill="#1A2D63" fill-opacity="0.25" stroke="#1A2D63" stroke-width="2"/>
  <rect x="42" y="40" width="16" height="12" rx="3" fill="#1A2D63" fill-opacity="0.2" stroke="#1A2D63" stroke-width="2"/>
  <!-- Tiny icons inside action nodes -->
  <line x1="46" y1="18" x2="54" y2="18" stroke="#1A2D63" stroke-width="1.5" stroke-linecap="round" opacity="0.5"/>
  <line x1="46" y1="32" x2="54" y2="32" stroke="#1A2D63" stroke-width="1.5" stroke-linecap="round" opacity="0.5"/>
  <line x1="46" y1="46" x2="54" y2="46" stroke="#1A2D63" stroke-width="1.5" stroke-linecap="round" opacity="0.5"/>
</svg>
