<svg xmlns="http://www.w3.org/2000/svg" viewBox="0 0 64 64" fill="none">
  <!-- Chat bubble (WhatsApp-style brief) -->
  <path d="M8 12c0-2.76 2.24-5 5-5h38c2.76 0 5 2.24 5 5v26c0 2.76-2.24 5-5 5H26l-12 10V43h-1c-2.76 0-5-2.24-5-5V12z" fill="#1A2D63" fill-opacity="0.1" stroke="#1A2D63" stroke-width="2.5" stroke-linejoin="round"/>
  <!-- Structured brief lines inside -->
  <rect x="16" y="15" width="20" height="3" rx="1.5" fill="#1A2D63" opacity="0.5"/>
  <rect x="16" y="22" width="32" height="2" rx="1" fill="#1A2D63" opacity="0.25"/>
  <rect x="16" y="27" width="28" height="2" rx="1" fill="#1A2D63" opacity="0.2"/>
  <rect x="16" y="32" width="24" height="2" rx="1" fill="#1A2D63" opacity="0.15"/>
  <!-- Bullet dots -->
  <circle cx="14" cy="23" r="1.2" fill="#1A2D63" opacity="0.4"/>
  <circle cx="14" cy="28" r="1.2" fill="#1A2D63" opacity="0.35"/>
  <circle cx="14" cy="33" r="1.2" fill="#1A2D63" opacity="0.3"/>
</svg>
