<svg xmlns="http://www.w3.org/2000/svg" viewBox="0 0 64 64" fill="none">
  <!-- Document/note -->
  <path d="M12 6h28l10 10v40a4 4 0 0 1-4 4H12a4 4 0 0 1-4-4V10a4 4 0 0 1 4-4z" fill="#1A2D63" fill-opacity="0.1" stroke="#1A2D63" stroke-width="2.5" stroke-linejoin="round"/>
  <!-- Fold corner -->
  <path d="M40 6v10h10" stroke="#1A2D63" stroke-width="2.5" stroke-linejoin="round" fill="#1A2D63" fill-opacity="0.08"/>
  <!-- Text lines -->
  <line x1="16" y1="26" x2="38" y2="26" stroke="#1A2D63" stroke-width="2" stroke-linecap="round" opacity="0.4"/>
  <line x1="16" y1="33" x2="34" y2="33" stroke="#1A2D63" stroke-width="2" stroke-linecap="round" opacity="0.3"/>
  <line x1="16" y1="40" x2="30" y2="40" stroke="#1A2D63" stroke-width="2" stroke-linecap="round" opacity="0.25"/>
  <!-- Routing arrow -->
  <path d="M36 38l10 6" stroke="#1A2D63" stroke-width="2.5" stroke-linecap="round"/>
  <circle cx="50" cy="46" r="6" fill="#1A2D63" fill-opacity="0.2" stroke="#1A2D63" stroke-width="2"/>
  <!-- Person dot inside target circle -->
  <circle cx="50" cy="44.5" r="2" fill="#1A2D63" opacity="0.5"/>
  <path d="M46.5 50.5c0-1.93 1.57-3.5 3.5-3.5s3.5 1.57 3.5 3.5" stroke="#1A2D63" stroke-width="1.2" stroke-linecap="round" opacity="0.5"/>
</svg>
