<?xml version="1.0" encoding="UTF-8"?>
<svg id="Layer_2" data-name="Layer 2" xmlns="http://www.w3.org/2000/svg" viewBox="0 0 371.78 130.09">
  <defs>
    <style>
      .cls-1 {
        fill: #fff;
        stroke-width: 0px;
      }
    </style>
  </defs>
  <g id="Layer_1-2" data-name="Layer 1">
    <g>
      <polygon class="cls-1" points="51.44 101.62 84.74 101.62 56.28 130.09 22.97 130.09 51.44 101.62"/>
      <g>
        <path class="cls-1" d="M136.66,0l-19.4,23.54H30.04c-3.59,0-6.5,2.91-6.5,6.5v100.05H0V23.54C0,10.53,10.53,0,23.54,0h113.12Z"/>
        <path class="cls-1" d="M135.77,51.35l-23.78,23.55h-60.35v-19.26c0-2.38,1.92-4.3,4.3-4.3h79.84Z"/>
      </g>
      <g>
        <path class="cls-1" d="M199.22,2.71c-18.39,0-27.59,8.18-27.59,24.55v.58h-8.47v14.56h8.47v44.15h15.15v-44.15h8.72v-14.56h-8.72v-.58c0-3.77,1.02-6.36,3.05-7.82,2.04-1.45,5.18-2.17,9.4-2.17,3.91,0,8.49.31,13.73.94V4.35c-5.01-1.1-9.59-1.64-13.73-1.64ZM206.77,27.84v58.71h15.15V27.84h-15.15Z"/>
        <path class="cls-1" d="M371.34,42.4v-14.56h-13.27V11.4l-15.15,4.58v11.86h-11.12v14.56h11.12v24.43c0,8.07,2.14,13.65,6.4,16.79,4.27,3.14,11.62,4.1,22.02,2.93v-13.73c-2.89.16-5.32.18-7.28.05-1.95-.12-3.43-.65-4.45-1.57-1.03-.94-1.54-2.43-1.54-4.47v-24.43h13.27Z"/>
        <path class="cls-1" d="M284.86,32.66c-2.7-2.77-6.12-4.69-9.96-5.66-4.21-1.07-8.61-1.11-12.96-.98-5.8.17-11.44.93-16.15,4.59-.81.63-1.58,1.32-2.3,2.06-4.19,4.31-6.28,10.26-6.28,17.85v36.05h15.16v-34.17c0-3.92,1.06-6.9,3.17-8.98,2.06-2.02,4.79-3.05,8.19-3.1.15-.01.3-.01.46-.01.15,0,.3,0,.46,0,3.4.05,6.13,1.08,8.19,3.1,2.11,2.08,3.17,5.06,3.17,8.98v34.17h15.16v-36.05c0-5.21-1.02-10.54-3.93-14.94-.7-1.06-1.49-2.03-2.35-2.91Z"/>
        <path class="cls-1" d="M319.52,4.95c-1.85-1.88-4.07-2.83-6.65-2.83s-4.68.94-6.52,2.83c-1.85,1.88-2.75,4.09-2.75,6.61s.9,4.68,2.75,6.54c.45.45.93.84,1.41,1.19l13.8-4.16c.48-1.11.71-2.3.71-3.57,0-2.52-.92-4.72-2.75-6.61ZM306.41,27.93v58.91h15.14V27.93h-15.14Z"/>
        <g>
          <path class="cls-1" d="M190.61,94.82l-6.43,20.24-6.4-20.24h-6.27l10,28.99h5.02l10.04-28.99h-5.96Z"/>
          <path class="cls-1" d="M206.22,103.01c-6.04,0-10.7,4.22-10.7,10.61s4.66,10.61,10.66,10.61,10.71-4.26,10.71-10.66-4.65-10.56-10.67-10.56ZM206.19,119.42c-2.94,0-5.15-2.44-5.15-5.81s2.22-5.74,5.18-5.74,5.16,2.39,5.16,5.73-2.26,5.82-5.19,5.82Z"/>
          <path class="cls-1" d="M220.8,103.42v20.39h5.51v-20.39h-5.51ZM226.01,94.82c-.61-.67-1.47-1.08-2.44-1.08s-1.85.41-2.45,1.08c-.54.58-.88,1.38-.88,2.23,0,1.85,1.5,3.33,3.33,3.33s3.32-1.48,3.32-3.33c0-.85-.34-1.65-.88-2.23Z"/>
          <path class="cls-1" d="M245.95,117.95c-1.3.93-2.89,1.47-4.45,1.47-3.33,0-5.7-2.39-5.7-5.83s2.4-5.78,5.74-5.78c1.55,0,3.12.5,4.43,1.39l2.28-3.79c-1.86-1.5-4.63-2.4-7.38-2.4-5.83,0-10.62,4.04-10.62,10.72s5.25,10.49,10.58,10.49c2.9,0,5.64-1.06,7.73-2.7l-2.61-3.57Z"/>
          <path class="cls-1" d="M270.12,113.34c0-5.9-3.65-10.34-9.67-10.34s-10.32,4.05-10.32,10.74,4.81,10.48,10.62,10.48c3.07,0,6.01-1.03,8.07-2.74l-2.46-3.38c-1.47,1.08-3.24,1.79-5.19,1.79-3.11,0-5.19-1.81-5.52-4.71h14.39c.05-.46.09-1.21.09-1.85ZM255.71,111.68c.37-2.58,2.17-4.26,4.7-4.26,2.66,0,4.13,1.88,4.4,4.26h-9.1Z"/>
          <path class="cls-1" d="M280.02,118.78v-23.95h-5.76v28.99h18.25v-5.03h-12.49Z"/>
          <path class="cls-1" d="M295.51,103.42v20.39h5.51v-20.39h-5.51ZM300.72,94.82c-.61-.67-1.48-1.08-2.44-1.08s-1.85.41-2.45,1.08c-.54.58-.88,1.38-.88,2.23,0,1.85,1.48,3.33,3.33,3.33s3.32-1.48,3.32-3.33c0-.85-.34-1.65-.88-2.23Z"/>
          <path class="cls-1" d="M317.43,103.01c-2.63,0-4.96.97-6.44,3.02l-.41-2.61h-4.52v20.39h5.52v-11.49c0-2.59,1.54-4.4,4.13-4.4,2.35,0,3.6,1.47,3.6,3.79v12.09h5.52v-12.4c0-5.02-2.45-8.4-7.41-8.4Z"/>
          <path class="cls-1" d="M341.35,112.62l7.12-9.2h-6.62l-5.33,6.87h-1.36v-15.46h-5.51v28.99h5.51v-8.65h1.37l6.04,8.65h6.6l-7.82-11.19Z"/>
        </g>
      </g>
      <g>
        <path class="cls-1" d="M367.08,112.97c0-6.12,2.35-11.08,2.35-11.08,0,0,2.35,4.96,2.35,11.08,0,6.12-2.35,11.08-2.35,11.08,0,0-2.35-4.96-2.35-11.08Z"/>
        <path class="cls-1" d="M358.76,112.97c0-4.66,2.35-8.44,2.35-8.44,0,0,2.35,3.78,2.35,8.44,0,4.66-2.35,8.44-2.35,8.44,0,0-2.35-3.78-2.35-8.44Z"/>
        <path class="cls-1" d="M350.9,112.97c0-3.25,2.12-5.89,2.12-5.89,0,0,2.12,2.64,2.12,5.89,0,3.25-2.12,5.89-2.12,5.89,0,0-2.12-2.64-2.12-5.89Z"/>
      </g>
    </g>
  </g>
</svg>